<?xml version="1.0" encoding="utf-8"?>
<!-- Generator: Adobe Illustrator 14.0.0, SVG Export Plug-In . SVG Version: 6.00 Build 43363)  -->
<!DOCTYPE svg PUBLIC "-//W3C//DTD SVG 1.1//EN" "http://www.w3.org/Graphics/SVG/1.1/DTD/svg11.dtd">
<svg version="1.1" id="Capa_1" xmlns="http://www.w3.org/2000/svg" xmlns:xlink="http://www.w3.org/1999/xlink" x="0px" y="0px"
	 width="800px" height="600px" viewBox="0 0 800 600" enable-background="new 0 0 800 600" xml:space="preserve">
<g>
	<path d="M413.941,139.553c-0.87-1.876-1.927-3.612-3.183-5.198c-2.246-2.835-5.089-5.012-8.528-6.528s-7.953-2.274-13.54-2.274
		h-28.343v61.739h28.343c3.199,0,6.761-0.517,10.657-1.513v-46.227H413.941z M396.566,167.309c-0.955,2.205-2.274,3.749-3.959,4.633
		c-1.685,0.884-4.521,1.327-8.507,1.327h-4.675v-33.734h4.759c4.941,0,8.48,1.208,10.614,3.622c2.133,2.415,3.2,6.893,3.2,13.435
		C397.998,161.533,397.521,165.105,396.566,167.309z"/>
	<g>
		<path d="M454.645,158.466c-1.011-3.803-2.64-7.138-4.886-10.005c-2.246-2.867-5.089-5.067-8.528-6.6s-7.953-2.299-13.54-2.299
			h-13.749c0.685,1.494,1.258,3.074,1.703,4.75c1.011,3.804,2.355,8.462,2.355,12.721c0,6.67-1.591,11.215-3.093,14.891
			s-3.587,6.755-6.254,9.239c-2.668,2.484-5.691,4.084-8.752,4.907c11.683-3.178,11.354-2.834-0.554,0.227v15.683h28.343
			c3.397,0,7.188-0.568,11.371-1.703c3.061-0.823,5.924-2.476,8.592-4.96c2.667-2.483,4.752-5.563,6.254-9.239
			c1.502-3.675,2.253-8.849,2.253-15.519C456.16,166.3,455.655,162.27,454.645,158.466z M435.566,181.777
			c-0.955,2.229-2.274,3.79-3.959,4.684s-4.521,1.341-8.507,1.341c0,0-22.851,0.74-23.351,0.234
			c-1.185-1.198,10.673-5.227,10.75-5.308c11.75-12.385,7.926-29.031,7.926-29.031h4.759c4.941,0,8.479,1.221,10.613,3.662
			c2.133,2.441,3.2,6.969,3.2,13.582C436.998,175.938,436.521,179.549,435.566,181.777z"/>
		<g>
			<path d="M399.333,185.792c0.145-0.031,0.29-0.062,0.436-0.094c4.195-0.914,7.635-2.986,10.823-6.521
				c2.363-2.62,5.073-8.761,5.634-11.951c0.502-2.859,1.234-12.272,0.372-17.53c-0.8-4.874-1.793-7.955-2.751-10.07l3.222-0.163
				c0.9,2.252,1.789,5.326,2.514,9.744c0.899,5.485,0.223,15.126-0.378,18.543c-0.646,3.673-3.567,10.35-6.366,13.453
				c-3.584,3.973-7.648,6.41-12.426,7.451c-0.394,0.085-0.638,0.166-1.017,0.243"/>
		</g>
	</g>
</g>
<text transform="matrix(1 0 0 1 399.751 154.1914)" fill="#FF0000" font-family="'Arial-Black'" font-size="19.4092">&amp;</text>
<g>
	<g>
		<g>
			<path d="M450.125,149.125l-1.979-2.583l0,0c6.044-8.564,4.866-18.519,4.855-18.623l-0.048-0.467l0.229-0.411
				c0.646-1.165,2.223-2.01,3.748-2.01h20.26l0.435,1.845l-20.75,0.375c-0.321,0-0.667,0.136-0.895,0.275
				c0.14,2.641,0.241,13.006-5.583,21.259l-0.272,0.403V149.125z"/>
		</g>
		<path fill="#FFFFFF" stroke="#000000" stroke-width="3" stroke-linecap="square" d="M448.903,148.292
			c0.091-0.124,0.181-0.249,0.269-0.373"/>
		<g>
			<path fill="#FFFFFF" d="M455.313,161l-14.097-2.556c-1.264-0.06-2.386-0.847-2.644-1.877c-0.22-0.873,0.183-1.729,1.024-2.179
				c3.258-1.748,6.436-5.086,8.55-7.971l1.967,2.763c-1.821,2.779-4.223,4.788-6.938,6.568l11.032,1.836l1.104,3.479V161z"/>
		</g>
		<g>
			<path d="M450.113,149.179c-1.821,2.779-4.223,4.788-6.938,6.568l11.032,1.836L450.113,149.179z"/>
		</g>
		<g>
			<path d="M459.766,161.781l-0.265-0.023L455.25,161l-0.875-3.188l5.483,0.961c0.217-0.031,0.651-0.182,1.303-0.81
				c6.406-6.173,11.395-12.372,14.339-19.63l2.531,0.516c-3.103,7.65-8.078,14.808-14.788,21.274
				C462.103,161.224,460.933,161.781,459.766,161.781L459.766,161.781z"/>
		</g>
		<g>
			<path d="M475.5,138.359c2.167-4.359,2.546-7.369,2.167-8.693c-0.273-0.957-0.536-2.263-1.542-2.792l1.078-1.813
				c1.464,0.771,1.974,2.237,2.234,3.938c0.396,2.583-0.125,5.188-1.438,9.891C477.967,139.009,475.338,138.686,475.5,138.359z"/>
		</g>
	</g>
	<path fill="none" stroke="#000000" stroke-linecap="round" stroke-linejoin="round" d="M477.421,138.468
		c0,0-2.009-7.251-6.273-8.095c-1.652-0.327,3.452-1.504,4.766-2.453c1.555-1.125,1.265-1.367-0.413-1.53"/>
</g>
</svg>
